<svg width="82" height="82" viewBox="0 0 82 82" fill="none" xmlns="http://www.w3.org/2000/svg">
<circle cx="41" cy="41" r="41" fill="white"/>
<g clip-path="url(#clip0_608_2)">
<path d="M54.2129 39.2722C53.9086 38.2875 53.2542 37.9022 52.6481 37.4967C51.4447 36.6919 50.1141 36.1259 48.801 35.5309C47.7484 35.0531 46.7415 34.488 45.8433 33.7475C43.2242 31.5895 43.2531 28.7121 46.1538 26.9702C49.3054 25.0775 52.6929 24.9135 56.0725 26.5576C56.1602 26.6026 56.2479 26.6669 56.2856 26.8644C55.5681 26.7595 54.8524 26.629 54.1314 26.5523C52.4262 26.376 50.7289 26.3822 49.0913 26.9834C48.6579 27.1397 48.2438 27.3455 47.8572 27.597C46.9292 28.214 46.1301 29.0418 46.2135 30.1869C46.3012 31.4061 47.3783 31.9941 48.3186 32.6632C48.4528 32.2515 48.2396 32.0056 48.1703 31.7376C47.7581 30.1305 48.3388 29.0048 49.9246 28.5023C51.5333 27.9928 53.1867 28.0774 54.8067 28.3824C57.175 28.8285 59.4468 29.5893 61.4195 31.0271C63.8044 32.7699 64.7368 35.2197 64.7351 38.1182C64.7351 40.6192 63.9193 42.9509 63.358 45.3399C62.9282 47.1691 62.501 49.0133 62.8861 50.9174C63.0325 51.6421 63.2474 52.4945 63.9956 52.6259C64.6482 52.7405 65.0201 51.9409 65.3113 51.4005C66.8981 48.4694 67.4314 45.3672 66.6209 42.0949C66.1876 40.3459 65.7595 38.6066 66.1753 36.7906C66.2455 36.4847 66.3104 36.1735 66.6086 35.8438C66.7069 36.4609 66.784 37.0057 66.8805 37.5443C67.2252 39.454 67.8185 41.3098 68.6453 43.0637C69.1646 44.1577 69.2225 45.2059 68.8813 46.3387C68.1322 48.8229 67.006 51.1546 65.6517 53.3285C64.3991 55.3384 64.0439 57.4612 63.9597 59.7329C63.857 62.4816 61.4318 63.3552 59.2722 63.6902C58.7091 63.7783 58.3846 63.3781 58.0723 62.9796C56.604 61.1116 55.0655 59.3115 53.1902 57.8305C51.7175 56.666 50.1202 55.78 48.2326 55.5209C47.6528 55.4406 47.4099 55.0263 47.1958 54.5803C46.5818 53.2994 46.2231 51.9241 45.7758 50.5816C45.688 50.3171 45.6652 50.0182 45.3372 49.7785C45.1354 50.2192 45.2398 50.6292 45.3188 51.0259C45.4942 51.9074 45.7117 52.7748 45.8722 53.6564C46.0705 54.7486 45.8722 55.7051 44.9539 56.4659C44.1767 57.1094 43.4628 57.8288 42.7374 58.5366C41.3804 59.8669 40.2875 61.3382 39.7937 63.2485C39.4235 64.6775 38.7543 66.0139 37.6886 67.0885C36.5799 68.2037 35.4598 68.3491 34.0862 67.5699C32.9222 66.9087 31.9258 66.0272 30.9416 65.1324C29.7066 64.0102 28.3979 63.0572 26.6638 62.8615C25.813 62.7645 25.0675 62.3326 24.4438 61.7596C22.5308 60.0079 21.2353 57.8508 20.8476 55.2846C20.3213 51.821 19.7073 48.3821 18.8301 44.9917C18.8087 44.8636 18.7953 44.7344 18.7898 44.6047C19.2064 44.6875 19.3161 45.0022 19.4652 45.2473C21.044 47.7835 21.5545 50.6106 21.6466 53.5339C21.6544 54.1417 21.8047 54.739 22.0852 55.2776C23.1807 57.3492 24.5964 59.1564 26.4051 60.655C26.5843 60.8012 26.7711 60.9378 26.9647 61.064C27.1018 61.1362 27.2437 61.1989 27.3892 61.2518C26.8524 59.8625 26.7937 58.4899 26.6577 57.1182C26.4191 54.7169 25.6218 52.439 24.164 50.5428C20.1941 45.3787 21.9834 38.656 26.3902 34.9332C27.5664 33.9441 28.7321 32.94 30.382 32.873C32.7231 32.7778 34.2195 33.9591 34.6703 36.2679C34.7528 36.691 34.8151 37.1186 34.8966 37.5999C35.5168 37.3601 35.8896 37.0084 35.9334 36.3446C36.1246 33.4275 34.3774 31.2316 31.517 30.7547C30.7276 30.6215 30.0364 30.8287 29.3672 31.1954C27.876 32.0117 26.5542 33.0908 25.1236 34.0085C26.6086 31.712 28.4041 29.7903 31.2434 29.2904C32.5591 29.0586 33.8204 29.3442 34.9028 30.2301C36.5088 31.5454 37.543 33.2089 37.9271 35.2497C38.1113 36.2255 38.0692 37.0762 37.1868 37.8943C35.4834 39.4705 34.1642 41.3852 33.2064 43.5248C32.9836 44.0211 32.795 44.5297 32.8196 45.1186C35.0124 41.3579 37.6087 38.0318 41.9918 36.7915C46.3608 35.5512 50.2763 37.0101 54.2129 39.2722ZM31.7995 53.0737C31.9319 53.0243 31.9749 53.0226 31.9819 53.004C32.1354 52.7272 32.2784 52.4451 32.4354 52.171C33.5599 50.2122 34.6642 48.2375 36.5755 46.8993C38.1543 45.7903 38.8288 45.8194 40.2814 47.1144C40.7594 47.5402 41.1436 47.467 41.5181 46.9831C42.0339 46.3219 41.6567 45.8626 41.1875 45.4183C40.8962 45.1433 40.6235 44.8101 40.9866 44.4618C41.3497 44.1136 41.826 44.0784 42.24 44.4451C42.4768 44.6632 42.6236 44.9627 42.6514 45.2843C42.7154 45.8309 42.7724 46.3792 42.8189 46.9275C42.8496 47.4509 43.0116 47.958 43.29 48.4015C43.5119 48.7391 43.8162 48.9093 44.2548 48.777C44.7048 48.6386 44.8232 48.3186 44.7662 47.9052C44.7197 47.5623 44.6285 47.2255 44.5715 46.8835C44.5486 46.7512 44.4995 46.5829 44.6697 46.507C44.8399 46.4312 44.953 46.5599 45.0205 46.6833C45.2002 46.9772 45.3605 47.2825 45.5003 47.5975C45.7117 48.0965 46.0424 48.2287 46.5362 48.0259C47.0792 47.8029 47.095 47.4133 46.8678 46.9681C46.6713 46.5829 46.438 46.2161 46.2222 45.8406C45.931 45.3355 45.66 44.8233 45.7293 44.2106C45.788 43.6896 46.0143 43.27 46.6064 43.3925C47.1511 43.5062 47.23 43.9215 47.0099 44.4054C46.9478 44.5369 46.9151 44.6804 46.9143 44.8259C46.9274 45.2552 47.0573 45.6493 47.5072 45.7877C48.016 45.9446 48.2326 45.5929 48.394 45.1856C48.5642 44.7528 48.7703 44.3041 48.7063 43.8465C48.5826 42.965 49.051 42.8945 49.7088 43.0126C49.8781 43.0426 50.0457 43.0858 50.2141 43.1245C52.6893 43.6887 54.8927 44.8929 57.111 46.0663C57.2803 46.1544 57.4382 46.4277 57.7004 46.2161C55.6444 43.6067 52.6788 42.2686 49.1676 41.8172C48.6001 41.744 48.1519 41.5995 47.6914 41.2618C44.1952 38.6974 39.6148 40.6201 38.9771 44.0052C38.8964 44.4328 38.635 44.5086 38.2561 44.5897C36.3343 44.9969 34.8405 46.0495 33.7379 47.6892C32.6538 49.2989 32.103 51.099 31.7995 53.0737ZM59.7968 31.8566C58.8609 31.5921 58.2232 31.8187 57.6206 32.1466C54.9988 33.5747 53.9901 37.4685 55.5655 40.0321C56.7487 41.9591 59.1617 42.7208 61.0555 41.767C63.1966 40.6879 64.3596 37.6916 63.4422 35.4048C63.3106 36.5323 63.1922 37.5743 62.594 38.4638C61.8659 39.5481 60.8932 40.2146 59.5389 40.0171C58.2355 39.8267 57.4443 38.9795 57.054 37.763C56.7382 36.78 56.7496 35.7619 56.975 34.7578C57.3013 33.32 58.2662 32.4455 59.7968 31.8575V31.8566ZM25.4937 41.5157C25.87 41.4672 26.1516 41.4161 26.4349 41.3967C27.7682 41.3085 27.805 41.3553 27.3743 42.6097C27.0235 43.6402 27.5796 44.3517 28.6611 44.1965C29.0435 44.141 29.4058 43.9426 29.7794 43.8086C30.1092 45.3954 29.5838 46.8059 28.4093 47.4318C27.6331 47.8461 26.8112 47.8787 25.9814 47.5993C25.1753 47.3286 24.6657 46.6913 24.1587 46.0407C24.2965 47.0624 24.685 47.9448 25.3929 48.6642C27.4103 50.7261 30.4513 50.05 31.4276 47.3304C32.217 45.1265 31.3644 42.4158 29.4347 40.9833C28.1199 40.0056 26.6735 40.1837 25.4937 41.5157ZM60.9064 36.0695C61.2521 36.0638 61.5818 35.9221 61.8248 35.6749C62.0678 35.4277 62.2047 35.0947 62.2063 34.7472C62.1957 34.0702 61.5388 33.4328 60.8599 33.4407C60.1652 33.4487 59.5757 34.0755 59.588 34.793C59.5863 34.9653 59.6195 35.1361 59.6858 35.295C59.7521 35.4538 59.8499 35.5974 59.9734 35.7169C60.0968 35.8365 60.2432 35.9294 60.4036 35.99C60.5641 36.0506 60.7351 36.0777 60.9064 36.0695V36.0695ZM49.4071 48.8114C49.4141 48.3327 49.1045 48.1212 48.7054 48.1167C48.323 48.1167 48.0607 48.4015 48.0563 48.7806C48.0563 49.2099 48.3195 49.4734 48.7659 49.4576C49.1606 49.4435 49.3992 49.2284 49.4071 48.8114ZM50.1255 52.2142C50.543 52.1727 50.8017 51.9585 50.7947 51.5089C50.7877 51.0876 50.507 50.8778 50.1395 50.8645C49.7009 50.8478 49.4457 51.159 49.4527 51.5698C49.4615 51.9338 49.7088 52.186 50.1272 52.2142H50.1255ZM51.6315 47.7183C51.2465 47.8399 50.914 48.0057 50.9693 48.4808C51.0158 48.8802 51.2728 49.105 51.6648 49.0865C52.1034 49.0671 52.3604 48.7973 52.3218 48.3574C52.2894 47.9607 51.9955 47.7791 51.6333 47.7139L51.6315 47.7183ZM37.2807 52.5747C37.2167 52.1904 36.9965 51.9153 36.6158 51.9145C36.2018 51.9145 35.9062 52.1789 35.9141 52.6135C35.922 53.0481 36.2123 53.2853 36.6492 53.2571C37.0526 53.2306 37.2368 52.96 37.2807 52.5747ZM54.4594 50.3814C54.4313 49.9645 54.2033 49.7476 53.7919 49.7503C53.3805 49.7529 53.12 49.9997 53.1235 50.3903C53.1235 50.816 53.4042 51.1114 53.8454 51.0858C54.2357 51.0638 54.4541 50.794 54.4594 50.3814ZM38.6604 49.0767C38.5797 48.6915 38.3526 48.4165 37.9754 48.4209C37.564 48.4209 37.2737 48.6853 37.2912 49.1314C37.3088 49.5775 37.5965 49.8058 38.0342 49.767C38.4315 49.7309 38.6104 49.4488 38.6604 49.0767V49.0767ZM51.0535 46.12C51.0245 45.733 50.8412 45.4554 50.429 45.4351C50.0167 45.4148 49.7562 45.6378 49.7273 46.0425C49.6913 46.4929 49.9562 46.76 50.3912 46.7838C50.8263 46.8076 50.9912 46.5132 51.0535 46.12V46.12ZM40.177 52.1093C40.0831 51.732 39.8902 51.4605 39.47 51.4807C39.0095 51.5037 38.7999 51.784 38.835 52.2292C38.8674 52.6558 39.163 52.8366 39.5463 52.8083C39.9454 52.7784 40.1384 52.4963 40.1761 52.1093H40.177ZM42.1786 49.693C42.1479 49.2892 41.9383 49.0468 41.5287 49.0433C41.069 49.0433 40.8489 49.3201 40.8629 49.7564C40.8752 50.1734 41.155 50.3876 41.5445 50.3735C41.9339 50.3594 42.1663 50.1099 42.1777 49.693H42.1786ZM42.8759 52.9802C42.8374 52.6761 42.7146 52.3817 42.2742 52.3543C41.8602 52.3288 41.6006 52.5412 41.5506 52.9309C41.4918 53.3787 41.7585 53.6573 42.1865 53.6828C42.5786 53.7066 42.8128 53.4554 42.8751 52.9802H42.8759Z" fill="black"/>
<path d="M14.2586 47.5094C14.2586 46.0381 14.2586 44.5632 13.9156 43.1113C13.6524 41.9926 13.1384 41.0838 12.2025 40.3979C10.8974 39.437 9.67639 38.3704 8.7133 37.048C6.97569 34.6599 6.94762 32.2665 8.5598 29.792C9.50184 28.3454 10.7886 27.3043 12.2552 26.4615C14.6769 25.0704 17.2031 23.8751 19.4775 22.2107C20.7529 21.2771 22.2475 20.6557 23.9114 20.7121C24.893 20.7473 25.0122 20.9166 24.5903 21.7999C22.8483 25.4495 21.0107 29.055 19.367 32.7487C17.5899 36.7404 16.7356 40.9903 16.3093 45.3328C16.1654 46.7997 16.1225 48.2798 15.812 49.7273C15.77 49.9536 15.7038 50.1747 15.6146 50.3867C15.4637 50.7173 15.2374 51.0038 14.8199 50.8892C14.4436 50.7887 14.2603 50.5013 14.2594 50.1091C14.2568 49.246 14.2586 48.3777 14.2586 47.5094Z" fill="black"/>
<path d="M56.0023 13.94C58.696 14.0449 61.2651 14.7792 63.7535 15.808C66.8428 17.0862 69.9101 18.4209 72.6529 20.3859C72.8398 20.5208 73.0187 20.668 73.195 20.8178C75.508 22.7775 75.6256 24.3784 73.5959 26.6096C72.838 27.4427 72.4942 28.4115 72.4556 29.5249C72.4047 30.8252 72.5696 32.1325 72.3126 33.4249C72.0302 34.8459 71.5749 35.0346 70.1812 35.0372C68.6137 35.0372 67.9883 34.079 67.47 32.9092C66.4463 30.6171 65.7367 28.1902 64.6061 25.9396C63.4658 23.6652 62.0624 21.6121 59.938 20.1214C58.1732 18.882 56.1505 18.6722 54.1085 18.4747C53.7086 18.4359 53.3077 18.3865 52.9086 18.3354C52.1946 18.2393 51.5052 18.0533 51.3298 17.2308C51.1421 16.3431 51.4017 15.5621 52.135 14.9926C53.2665 14.1093 54.6138 13.9876 56.0023 13.94Z" fill="black"/>
<path d="M48.2984 57.2567C50.4307 57.4841 52.32 58.7042 53.991 60.3174C54.933 61.2271 55.7084 62.2691 56.0303 63.5835C56.3566 64.9164 55.7365 65.8218 54.3804 65.9258C53.9496 65.9637 53.5155 65.9384 53.0919 65.8509C51.0342 65.3916 48.9694 65.4621 46.9064 65.7389C45.8091 65.8852 44.7819 66.2308 43.8513 66.8576C43.132 67.3424 42.3602 67.7471 41.5216 67.9745C40.6261 68.2169 40.1665 67.8476 40.3971 66.9581C41.1936 63.8727 42.3435 60.953 44.6951 58.6909C45.6126 57.8085 46.7344 57.2902 48.2984 57.2567Z" fill="black"/>
<path d="M29.3829 19.3871C30.0908 18.5487 30.8442 18.2058 31.6459 17.9995C32.8117 17.6989 33.9844 17.7783 35.1422 18.1088C36.0676 18.3733 36.5851 18.9904 36.7789 19.9248C37.0675 21.3177 36.7789 22.6929 36.6614 24.0681C36.5316 25.5923 36.5693 27.0654 37.4508 28.5323C36.6702 28.3454 36.3465 27.82 36.0781 27.2725C35.2571 25.5976 35.0931 23.7825 35.044 21.9568C34.9905 19.9566 34.3019 19.2469 32.2713 19.1499C31.3714 19.1076 30.4908 19.2407 29.3829 19.3871Z" fill="black"/>
<path d="M41.776 25.6575C40.7357 24.6164 40.7708 23.5797 41.0401 22.5157C41.3743 21.1934 41.6927 19.8834 41.4989 18.4932C41.3875 17.6998 41.0603 17.0237 40.5077 16.3775C41.0585 16.3775 41.5146 16.3687 41.9708 16.3775C43.147 16.403 43.4943 16.7486 43.5093 17.9422C43.5242 19.1059 43.1224 20.177 42.5874 21.166C41.8585 22.5113 41.5576 23.9068 41.776 25.6575Z" fill="black"/>
</g>
<defs>
<clipPath id="clip0_608_2">
<rect width="67.65" height="54.12" fill="white" transform="translate(7.38 13.94)"/>
</clipPath>
</defs>
</svg>
